<svg width="24.000000000000004" height="24.000000000000004" xmlns="http://www.w3.org/2000/svg">

 <g>
  <title>Layer 1</title>
  <line id="svg_11" y2="3.02664" x2="0.88099" y1="3.09769" x1="9.44227" stroke="#000" fill="none"/>
  <line transform="rotate(3.03434 6.76021 5.37123)" id="svg_12" y2="7.8579" x2="4.53996" y1="2.88455" x1="8.98046" stroke="#000" fill="none"/>
  <line stroke="#000" id="svg_13" y2="9.27886" x2="10.29485" y1="7.82238" x1="3.97158" fill="none"/>
  <line id="svg_14" y2="14.60746" x2="0.98757" y1="9.20782" x1="10.15275" stroke="#000" fill="none"/>
  <line id="svg_16" y2="15.03375" x2="13.52753" y1="9.6341" x1="9.93961" stroke="#000" fill="none"/>
  <line id="svg_17" y2="16.881" x2="10.61456" y1="11.23268" x1="6.56483" stroke="#000" fill="none"/>
  <line id="svg_18" y2="19.82949" x2="5.00178" y1="14.39432" x1="1.52043" stroke="#000" fill="none"/>
  <line id="svg_19" y2="14.78508" x2="13.13677" y1="13.61279" x1="21.84014" stroke="#000" fill="none"/>
  <line id="svg_21" y2="16.70338" x2="10.01066" y1="14.8206" x1="13.27886" stroke="#000" fill="none"/>
  <line id="svg_22" y2="18.72824" x2="16.65364" y1="16.66785" x1="10.43694" stroke="#000" fill="none"/>
  <line stroke="#000" id="svg_23" y2="20.78863" x2="14.30906" y1="18.65719" x1="17.11545" fill="none"/>
  <line id="svg_26" y2="20.64654" x2="14.80639" y1="18.87034" x1="6.99112" stroke="#000" fill="none"/>
  <line stroke="#000" id="svg_27" y2="9.34991" x2="10.25932" y1="3.16874" x1="15.69449" fill="none"/>
  <line id="svg_28" y2="13.79041" x2="21.59147" y1="9.95382" x1="19.7087" stroke="#000" fill="none"/>
  <line id="svg_29" y2="10.87744" x2="17.39964" y1="8.71048" x1="21.20071" stroke="#000" fill="none"/>
  <line id="svg_30" y2="17.80462" x2="18.14565" y1="14.60746" x1="17.75488" stroke="#000" fill="none"/>
  <path d="m20.5968,13.86146c0.03552,0 0.0528,0.02926 0.07105,0.10657c0.00816,0.03457 0.0528,0.10031 0.07105,0.17762c0.00816,0.03457 0,0.07105 0,0.10657c0,0.07105 0,0.1421 0,0.17762c0,0.07105 0.02719,0.11198 0,0.17762c-0.01923,0.04642 -0.06289,0.10752 -0.07105,0.1421c-0.01825,0.07731 -0.08832,0.10031 -0.10657,0.17762c-0.00816,0.03457 -0.02193,0.07375 -0.03552,0.10657c-0.01923,0.04642 -0.07105,0.07105 -0.07105,0.1421c0,0.03552 -0.0772,0.10134 -0.10657,0.1421c-0.04645,0.06444 -0.08735,0.09568 -0.10657,0.1421c-0.01359,0.03282 -0.0528,0.02926 -0.07105,0.10657c-0.00816,0.03457 -0.03823,0.05746 -0.07105,0.07105c-0.13924,0.05768 -0.1475,0.07938 -0.21314,0.10657c-0.09283,0.03845 -0.17857,0.09841 -0.21314,0.10657c-0.07731,0.01825 -0.13488,0.08016 -0.17762,0.10657c-0.09556,0.05906 -0.18577,0.08284 -0.31972,0.1421c-0.11713,0.05182 -0.1421,0.10657 -0.17762,0.1421c-0.03552,0.03552 -0.07105,0.07105 -0.10657,0.07105c-0.03552,0 -0.14263,0.06237 -0.21314,0.07105c-0.14537,0.0179 -0.21409,0.06289 -0.24867,0.07105c-0.07731,0.01825 -0.07105,0.07105 -0.10657,0.07105c-0.03552,0 -0.07105,0 -0.10657,0l-0.03552,0l-0.03552,0" id="svg_34" stroke="#000" fill="none"/>
  <path d="m18.03908,17.55595c0,0.03552 0.06013,0.07766 0.10657,0.1421c0.02938,0.04076 0.06016,0.08735 0.10657,0.10657c0.03282,0.01359 0.06481,0.00348 0.10657,0.07105c0.01868,0.03022 0.01366,0.04305 0.03552,0.07105c0.09014,0.11545 0.28566,0.06562 0.42629,0.10657c0.10786,0.03141 0.24901,0.06405 0.31972,0.07105c0.18026,0.01785 0.31972,0.07105 0.49734,0.07105c0.1421,0 0.31972,0.07105 0.46181,0.07105c0.21314,0 0.35524,0.03552 0.49734,0.03552c0.10657,0 0.24867,0 0.39076,0c0.17762,0 0.28471,0.0105 0.39076,0c0.18026,-0.01785 0.28419,-0.03552 0.42629,-0.03552c0.21314,0 0.38259,-0.05501 0.53286,-0.10657c0.17133,-0.05879 0.25137,-0.09298 0.28419,-0.10657c0.04642,-0.01923 0.08735,-0.09568 0.10657,-0.1421c0.02719,-0.06564 0,-0.17762 0,-0.24867c0,-0.10657 0,-0.17762 0,-0.31972c0,-0.1421 0,-0.24867 0,-0.42629c0,-0.10657 0,-0.17762 0,-0.28419c0,-0.03552 0,-0.10657 0,-0.1421c0,-0.03552 0,-0.07105 0,-0.10657l0,-0.03552l0,-0.03552" id="svg_35" stroke="#000" fill="none"/>
 </g>
</svg>